<svg id="Layer_1" data-name="Layer 1" xmlns="http://www.w3.org/2000/svg" viewBox="0 0 67.31 67.32"><defs><style>.cls-1{fill:#e04806;}</style></defs><path class="cls-1" d="M0,0V67.32H67.31V0ZM44.52,16.07h5.26v5H44.52Zm-3.65,7H53.24v3.4H40.87ZM22.26,12.43a8,8,0,1,1-8,8A8,8,0,0,1,22.26,12.43ZM33.82,54.89H12.46v-3.4h18V38.05l3.41,5.81ZM51.56,37.16H44.25l-4.19,4.18-2.43,2.45L31.21,33.5H28L24,47.15l-.19.65H20.66l-.19-.65L16.52,33.5H12.46V30.1h6.62L22.25,41l3.1-10.73V30.1H33.1l5.12,8.27,4.62-4.61h8.72Zm3.31-5.36H39.25V28.39H54.87ZM22.26,25.06A4.66,4.66,0,1,0,17.6,20.4h0A4.66,4.66,0,0,0,22.26,25.06Z"/></svg>